<?xml version="1.0" encoding="utf-8"?>
<!-- Generator: Adobe Illustrator 21.0.0, SVG Export Plug-In . SVG Version: 6.00 Build 0)  -->
<svg version="1.1" id="Layer_1" xmlns="http://www.w3.org/2000/svg" xmlns:xlink="http://www.w3.org/1999/xlink" x="0px" y="0px"
	 viewBox="0 0 32 32" style="enable-background:new 0 0 32 32;" xml:space="preserve">
<style type="text/css">
	.st0{fill:#010101;}
</style>
<path class="st0" d="M21.8,18.5V10c0-0.8-0.7-1.5-1.5-1.5c-0.3,0-0.6,0.1-0.8,0.3v-1c0-0.8-0.7-1.5-1.5-1.5c-0.3,0-0.6,0.1-0.9,0.3
	c-0.2-0.6-0.8-1.1-1.5-1.1c-0.8,0-1.5,0.7-1.5,1.5v0.3C13.8,7.1,13.5,7,13.2,7c-0.8,0-1.5,0.7-1.5,1.5v4.8c-0.2-0.3-0.5-0.5-1-0.5
	c-0.3,0-0.5,0.1-0.8,0.2c-0.1,0-0.2,0.1-0.2,0.3c0,0,0,0,0,0c0,0.3-0.3,1.5-1.5,3.1c0,0.1-0.1,0.1-0.1,0.2c0,0,0.2,2,0.8,4
	c0.3,1,0.8,2,1.4,2.8c0.6,0.8,1.5,1.3,2.5,1.3h0c0,0,0,0,0,0l5.4,0c1.9,0,3.5-1.6,3.5-3.5L21.8,18.5C21.8,18.5,21.8,18.5,21.8,18.5
	L21.8,18.5z M11.7,15.9v2l-0.3-0.1c0,0-0.1-0.1-0.1-0.4C11.3,17.1,11.4,16.7,11.7,15.9z M18.3,24.1c0,0-5.4,0-5.4,0
	c-0.8,0-1.5-0.4-2-1.1c-0.8-1-1.4-2.6-1.7-4c-0.2-0.7-0.3-1.3-0.3-1.7c0-0.3-0.1-0.5-0.1-0.6c1.1-1.5,1.5-2.8,1.5-3.2
	c0.2-0.1,0.3-0.1,0.4-0.1c0.2,0,0.3,0.1,0.5,0.2c0.2,0.3,0.3,0.9,0.3,1.2c0,0,0,0.1,0,0.1c-0.6,1.2-0.8,2-0.8,2.5c0,0.7,0.4,1,0.5,1
	l0.7,0.2c0,0,0.3,0,0.3,0s0.1,0,0.3,0c0.6,0.1,1.8,0.4,2.2,1.4c0.1,0.1,0.2,0.2,0.3,0.2c0,0,0.1,0,0.1,0c0.2-0.1,0.2-0.3,0.2-0.4
	c-0.4-0.9-1.2-1.3-1.9-1.5C13,18.1,12.5,18,12.3,18V8.5c0-0.5,0.4-0.9,0.9-0.9c0.4,0,0.7,0.2,0.8,0.6c0,0,0,6.9,0,6.9
	c0,0.2,0.1,0.3,0.3,0.3c0.2,0,0.3-0.1,0.3-0.3V7c0-0.5,0.4-0.9,0.9-0.9c0.5,0,0.9,0.4,0.9,0.9v8.6c0,0.2,0.1,0.3,0.3,0.3
	c0.2,0,0.3-0.1,0.3-0.3h0V7.5c0.1-0.3,0.5-0.6,0.8-0.6c0.5,0,0.9,0.4,0.9,0.9v8.1c0,0.2,0.1,0.3,0.3,0.3c0.2,0,0.3-0.1,0.3-0.3h0
	V9.7c0.1-0.3,0.5-0.6,0.8-0.6c0.5,0,0.9,0.4,0.9,0.9v8.5v2.7C21.2,22.8,19.9,24.1,18.3,24.1z"/>
<path class="st0" d="M16,32C7.2,32,0,24.8,0,16C0,7.2,7.2,0,16,0s16,7.2,16,16C32,24.8,24.8,32,16,32z M16,1C7.7,1,1,7.7,1,16
	s6.7,15,15,15c8.3,0,15-6.7,15-15S24.3,1,16,1z"/>
</svg>
