<?xml version="1.0" encoding="utf-8"?>
<!-- Generator: Adobe Illustrator 21.0.0, SVG Export Plug-In . SVG Version: 6.00 Build 0)  -->
<svg version="1.1" id="Layer_1" xmlns="http://www.w3.org/2000/svg" xmlns:xlink="http://www.w3.org/1999/xlink" x="0px" y="0px"
	 viewBox="0 0 32 32" style="enable-background:new 0 0 32 32;" xml:space="preserve">
<style type="text/css">
	.st0{fill:#010101;}
</style>
<path class="st0" d="M16,32C7.2,32,0,24.8,0,16C0,7.2,7.2,0,16,0s16,7.2,16,16C32,24.8,24.8,32,16,32z M16,1C7.7,1,1,7.7,1,16
	s6.7,15,15,15c8.3,0,15-6.7,15-15S24.3,1,16,1z"/>
<path class="st0" d="M22.8,11.1c0-1-0.8-1.7-1.7-1.7c-0.4,0-0.7,0.1-1,0.3c-0.1-0.9-0.8-1.5-1.7-1.5c-0.4,0-0.7,0.1-1,0.3
	c-0.2-0.7-0.9-1.3-1.7-1.3c-0.8,0-1.5,0.6-1.7,1.4c0,0.1,0,0.1,0,0.1c0,0.1,0,0.3,0,0.6c-0.3-0.2-0.6-0.3-1-0.3
	c-0.8,0-1.5,0.6-1.7,1.4l0,0.1v1.1c-0.2-0.3-0.6-0.6-1.1-0.6c-0.3,0-0.6,0.1-1,0.2c-0.1,0.1-0.2,0.2-0.2,0.3c0,0,0,0,0,0.1
	c0,0.3-0.3,1.8-1.7,3.6c-0.1,0.1-0.1,0.2-0.1,0.3c0,0,0.2,2.2,0.9,4.5C8.4,21,8.9,22.1,9.6,23c0.7,0.9,1.7,1.5,2.9,1.5c0,0,0,0,0,0
	l0.1,0c0.2,0,0.5,0.1,0.7,0.1l5.4,0c2.2,0,4-1.8,4-4L22.8,11.1z M20.1,10.8c0.1-0.4,0.5-0.7,1-0.7v0c0.6,0,1,0.5,1,1v2.4
	c0,0.1,0,0.1,0,0.2v0c-0.1,0.5-0.5,0.8-1,0.8c-0.3,0-0.5-0.1-0.7-0.3c-0.1-0.1-0.1-0.2-0.2-0.3c0,0,0,0,0-0.1c0,0,0,0,0,0
	c0,0,0,0,0,0c0-0.1-0.1-0.2-0.1-0.3l0-2.4c0-0.1,0-0.1,0-0.2C20,10.9,20,10.8,20.1,10.8C20.1,10.8,20.1,10.8,20.1,10.8z M18.3,8.9
	L18.3,8.9c0.6,0,1,0.5,1,1v4.6c0,0.4-0.2,0.7-0.5,0.8c-0.2,0.1-0.4,0.2-0.6,0.2c-0.3,0-0.6-0.2-0.8-0.4c-0.1-0.1-0.1-0.2-0.1-0.2
	c0,0,0,0,0,0c0-0.1,0-0.2,0-0.3l0-4.6c0-0.1,0-0.2,0-0.3c0,0,0,0,0,0C17.5,9.2,17.9,8.9,18.3,8.9z M14.6,8.8
	C14.6,8.8,14.6,8.7,14.6,8.8L14.6,8.8c0.1-0.5,0.5-0.9,1-0.9c0.6,0,1,0.5,1,1c0,0,0,5.8,0,5.9c0,0,0,0.1,0,0.1c0,0,0,0,0,0
	c0,0,0,0,0,0c0,0,0,0.1,0,0.1c0,0,0,0,0,0.1c0,0,0,0.1,0,0.1c0,0,0,0,0,0.1c0,0,0,0.1-0.1,0.1c0,0,0,0,0,0.1c0,0-0.1,0.1-0.1,0.1
	c0,0,0,0,0,0.1c0,0-0.1,0.1-0.1,0.1c0,0,0,0-0.1,0c0,0-0.1,0-0.1,0.1c0,0,0,0-0.1,0c0,0-0.1,0-0.1,0c0,0,0,0-0.1,0
	c-0.1,0-0.1,0-0.2,0c0,0,0,0,0,0c0,0-0.1,0-0.1,0c-0.5-0.1-0.9-0.5-0.9-1C14.6,15,14.6,8.9,14.6,8.8z M11.9,10.5
	c0.1-0.4,0.5-0.8,1-0.8c0.4,0,0.8,0.3,1,0.7v3.9c0,0,0,0,0,0.1c0,0,0,0,0,0.1c0,0,0,0,0,0.1c0,0,0,0,0,0.1c0,0,0,0-0.1,0.1
	c0,0,0,0,0,0.1c0,0,0,0-0.1,0.1c0,0,0,0-0.1,0c0,0,0,0-0.1,0c0,0,0,0-0.1,0c0,0-0.1,0-0.1,0c0,0,0,0-0.1,0c0,0-0.1,0-0.1,0
	c0,0,0,0-0.1,0c-0.1,0-0.1,0-0.2,0c0,0,0,0,0,0c-0.1,0-0.1,0-0.2,0c0,0,0,0-0.1,0c0,0-0.1,0-0.1,0c0,0,0,0-0.1,0c0,0-0.1,0-0.1,0
	c0,0,0,0-0.1,0c0,0-0.1,0-0.1-0.1c0,0,0,0-0.1-0.1c0,0,0,0-0.1-0.1c0,0,0,0-0.1-0.1c0,0,0,0-0.1-0.1c0,0,0,0,0-0.1c0,0,0,0,0-0.1
	c0,0,0-0.1,0-0.1c0,0,0,0,0-0.1L11.9,10.5L11.9,10.5z M11.2,14.5v2.2l-0.3-0.1c0,0-0.1-0.1-0.1-0.5C10.8,15.9,10.9,15.3,11.2,14.5z
	 M22.1,20.6c0,1.8-1.5,3.3-3.3,3.3h-5.4c-0.2,0-0.4,0-0.6-0.1l-0.1,0l-0.1,0c0,0,0,0,0,0c0,0,0,0,0,0c-1,0-1.7-0.5-2.3-1.2
	c-1-1.2-1.6-3-1.9-4.5c-0.2-0.8-0.3-1.5-0.4-1.9c0-0.3-0.1-0.5-0.1-0.7c1.3-1.7,1.7-3.2,1.8-3.7c0.2-0.1,0.4-0.1,0.5-0.1
	c0.3,0,0.4,0.1,0.5,0.3c0.3,0.3,0.3,1,0.3,1.3c0,0,0,0.1,0,0.1c-0.7,1.4-0.9,2.2-0.9,2.8c0,0.8,0.4,1.1,0.6,1.2l0.8,0.3
	c0.1,0,0.8,0,1.4,0.2c0.7,0.2,1.3,0.6,1.7,1.3c0.1,0.1,0.2,0.2,0.3,0.2c0.1,0,0.1,0,0.2,0c0.2-0.1,0.3-0.3,0.2-0.5
	c-0.5-1-1.4-1.5-2.1-1.7c-0.4-0.1-0.8-0.2-1.1-0.2v-1.6c0,0,0.1,0,0.1,0c0,0,0.1,0,0.1,0.1c0.1,0,0.1,0.1,0.2,0.1c0,0,0.1,0,0.1,0
	c0.1,0,0.1,0,0.2,0.1c0,0,0.1,0,0.1,0c0.1,0,0.2,0,0.3,0l0,0c0,0,0,0,0,0c0.1,0,0.2,0,0.3,0c0,0,0.1,0,0.1,0c0.1,0,0.1,0,0.2,0
	c0,0,0.1,0,0.1,0c0.1,0,0.1,0,0.2-0.1c0,0,0.1,0,0.1-0.1c0,0,0.1,0,0.1-0.1c0.1,0.7,0.7,1.2,1.3,1.3c0,0,0,0,0,0c0,0,0.1,0,0.2,0
	c0,0,0,0,0,0c0.1,0,0.1,0,0.2,0c0,0,0,0,0,0c0.1,0,0.1,0,0.2,0c0,0,0,0,0.1,0c0,0,0.1,0,0.1,0c0,0,0,0,0.1,0c0.1,0,0.1,0,0.2-0.1
	c0,0,0,0,0,0c0.1,0,0.1-0.1,0.2-0.1c0,0,0,0,0.1,0c0,0,0.1-0.1,0.1-0.1c0,0,0,0,0,0c0.1,0,0.1-0.1,0.2-0.1c0,0,0,0,0,0
	c0,0,0.1-0.1,0.1-0.1c0,0,0,0,0,0c0,0,0.1-0.1,0.1-0.1c0,0,0,0,0,0c0,0,0.1,0.1,0.1,0.1c0,0,0,0,0,0c0.1,0,0.1,0.1,0.2,0.1
	c0,0,0,0,0,0c0.1,0,0.1,0.1,0.2,0.1c0,0,0,0,0,0c0.1,0,0.2,0,0.2,0.1c0,0,0,0,0,0c0.1,0,0.2,0,0.3,0c0,0,0,0,0,0c0,0,0,0,0,0
	c0,0,0.1,0,0.1,0c0,0,0,0,0.1,0c0,0,0.1,0,0.1,0c0,0,0,0,0.1,0c0,0,0.1,0,0.1,0c0,0,0,0,0.1,0c0,0,0.1,0,0.1,0c0,0,0,0,0.1,0
	c0,0,0.1,0,0.1,0c0,0,0,0,0.1,0c0,0,0.1,0,0.1-0.1c0,0,0,0,0.1,0c0,0,0.1-0.1,0.1-0.1c0,0,0,0,0,0c0,0,0.1-0.1,0.1-0.1c0,0,0,0,0,0
	c0,0,0,0,0.1-0.1c0,0,0,0,0-0.1c0,0,0,0,0.1-0.1c0,0,0,0,0-0.1c0,0,0,0,0-0.1c0,0,0,0,0-0.1c0,0,0-0.1,0-0.1c0,0,0,0,0-0.1
	c0,0,0-0.1,0-0.1c0,0,0,0,0-0.1c0,0,0-0.1,0-0.2c0,0,0.1,0,0.1,0.1c0,0,0.1,0,0.1,0.1c0,0,0.1,0,0.2,0.1c0,0,0.1,0,0.1,0
	c0.1,0,0.1,0,0.2,0c0,0,0.1,0,0.1,0c0.1,0,0.2,0,0.3,0c0.1,0,0.2,0,0.3,0c0,0,0,0,0,0c0.1,0,0.2,0,0.2-0.1c0,0,0,0,0,0
	c0.1,0,0.2-0.1,0.2-0.1c0,0,0,0,0,0c0.1,0,0.1-0.1,0.2-0.1c0,0,0,0,0,0L22.1,20.6L22.1,20.6L22.1,20.6z"/>
</svg>
