<?xml version="1.0" encoding="utf-8"?>
<!-- Generator: Adobe Illustrator 21.0.0, SVG Export Plug-In . SVG Version: 6.00 Build 0)  -->
<svg version="1.1" id="Layer_1" xmlns="http://www.w3.org/2000/svg" xmlns:xlink="http://www.w3.org/1999/xlink" x="0px" y="0px"
	 viewBox="0 0 32 32" style="enable-background:new 0 0 32 32;" xml:space="preserve">
<style type="text/css">
	.st0{fill:#010101;}
</style>
<path class="st0" d="M16,32C7.2,32,0,24.8,0,16C0,7.2,7.2,0,16,0s16,7.2,16,16C32,24.8,24.8,32,16,32z M16,1C7.7,1,1,7.7,1,16
	s6.7,15,15,15c8.3,0,15-6.7,15-15S24.3,1,16,1z"/>
<path class="st0" d="M21.3,14.2L21.3,14.2c-0.1,0-0.1,0-0.2,0c-0.2,0-0.4,0.1-0.6,0.1c0,0,0,0,0,0c0-0.7-0.5-1.3-1.2-1.4
	c-0.1,0-0.1,0-0.2,0c-0.2,0-0.4,0.1-0.6,0.2L19,8.4c0-0.1,0-0.1,0-0.2c0-0.7-0.5-1.3-1.2-1.4c-0.1,0-0.1,0-0.2,0
	c-0.7,0-1.3,0.5-1.4,1.2l-1,6.8l-1.8-6.5c-0.2-0.6-0.7-1.1-1.4-1.1c-0.1,0-0.2,0-0.4,0C11,7.4,10.6,8,10.6,8.6c0,0.1,0,0.2,0,0.4
	l1.2,4.9c-0.1,0-0.2,0.1-0.4,0.1c-0.1,0-0.1,0-0.2,0.1c-0.1,0-0.2,0.1-0.2,0.2c0,0,0,0,0,0c0,0.2-0.3,1.4-1.4,2.9v0c0,0,0,0.1,0,0.1
	c0,0,0,0,0,0c0,0,0,0.1,0,0.1c0,0,0,0,0,0c0,0,0.2,1.8,0.8,3.7c0.3,0.9,0.7,1.9,1.3,2.6c0.6,0.7,1.4,1.2,2.4,1.2h0c0,0,0,0,0,0
	l5.1,0c1.8,0,3.3-1.5,3.3-3.3l0-6c0-0.1,0-0.1,0-0.2C22.5,14.9,22,14.3,21.3,14.2z M19,13.5L19,13.5c0,0,0.1,0,0.1,0
	c0.4,0.1,0.7,0.4,0.7,0.8c0,0,0,0.1,0,0.1L19.8,15l-0.3,2.4l0,0.3l-0.1,0.5c0,0,0,0,0,0c-0.1,0.4-0.4,0.7-0.8,0.7c0,0-0.1,0-0.1,0
	c-0.4-0.1-0.6-0.3-0.7-0.7c0,0,0,0,0,0c0,0,0-0.1,0-0.1c0,0,0-0.1,0-0.1l0.2-1.3l0.2-1.6l0.1-0.8c0-0.1,0-0.2,0.1-0.2c0,0,0,0,0,0
	C18.4,13.7,18.7,13.5,19,13.5z M12.7,18.6C12.7,18.6,12.7,18.6,12.7,18.6C12.7,18.6,12.7,18.6,12.7,18.6c-0.1-0.1-0.1-0.1-0.1-0.1
	c0,0,0,0,0,0c0-0.1,0-0.2,0-0.3c0,0,0,0,0-0.1c0,0,0,0,0-0.1c0,0,0,0,0-0.1c0,0,0-0.1,0-0.1c0,0,0,0,0-0.1c0,0,0-0.1,0-0.1
	c0,0,0-0.1,0-0.1c0,0,0,0,0,0l0.2,1L12.7,18.6z M21.8,21.8c0,1.5-1.2,2.7-2.7,2.7h-5.1c0,0,0,0,0,0c-0.8,0-1.4-0.4-1.9-1
	c-0.8-1-1.3-2.5-1.6-3.7c-0.1-0.6-0.2-1.2-0.3-1.6c0-0.2-0.1-0.4-0.1-0.5c0,0,0,0,0.1-0.1c0-0.1,0.1-0.1,0.1-0.2
	c0,0,0.1-0.1,0.1-0.1c0-0.1,0.1-0.1,0.1-0.2c0,0,0-0.1,0.1-0.1c0-0.1,0.1-0.1,0.1-0.2c0,0,0-0.1,0.1-0.1c0,0,0.1-0.1,0.1-0.1
	c0,0,0-0.1,0.1-0.1c0,0,0.1-0.1,0.1-0.1c0,0,0-0.1,0-0.1c0,0,0.1-0.1,0.1-0.1c0,0,0,0,0-0.1c0,0,0-0.1,0.1-0.1c0,0,0,0,0-0.1
	c0,0,0-0.1,0.1-0.1c0,0,0,0,0-0.1c0,0,0-0.1,0.1-0.1c0,0,0,0,0,0c0,0,0-0.1,0-0.1c0,0,0,0,0,0c0,0,0-0.1,0-0.1c0,0,0,0,0,0
	c0,0,0-0.1,0-0.1c0,0,0,0,0,0c0,0,0-0.1,0-0.1c0,0,0,0,0,0c0,0,0-0.1,0-0.1c0,0,0,0,0,0c0,0,0,0,0-0.1c0,0,0-0.1,0-0.1
	c0.1,0,0.2-0.1,0.3-0.1c0,0,0,0,0,0c0,0,0.1,0,0.1,0c0.1,0,0.1,0,0.2,0c0.1,0,0.1,0.1,0.2,0.1c0,0,0,0,0.1,0.1
	c0.1,0.1,0.1,0.2,0.1,0.3c0.1,0.3,0.1,0.6,0.1,0.8c0,0,0,0.1,0,0.1v0c0,0,0,0.1,0,0.1c0,0.1-0.1,0.1-0.1,0.2
	c-0.1,0.1-0.1,0.3-0.2,0.4c-0.3,0.7-0.4,1.3-0.4,1.7c0,0.1,0,0.1,0,0.2c0,0.4,0.3,0.7,0.4,0.7c0,0,0,0,0,0l0,0l0,0l0.6,0.2l0.1,0
	c0,0,0.1,0,0.1,0c0,0,0,0,0,0c0,0,0,0,0,0c0,0,0,0,0,0c0.1,0,0.5,0,1,0.2c0.5,0.2,1.1,0.5,1.4,1.1c0,0.1,0.2,0.2,0.3,0.2
	c0,0,0.1,0,0.1,0c0.1-0.1,0.2-0.2,0.1-0.4c-0.4-0.8-1.1-1.2-1.7-1.4c-0.4-0.1-0.7-0.2-1-0.2l-0.2-1l-0.1-0.4l-0.2-0.7
	c0-0.1,0.1-0.1,0.1-0.2c0-0.1,0.1-0.2,0.1-0.3l0,0c0,0,0,0,0,0c0,0,0-0.1,0-0.1c0,0,0,0,0-0.1c0,0,0,0,0-0.1l0,0c0-0.1,0-0.1,0-0.2
	c0,0,0-0.1,0-0.1c0,0,0-0.1,0-0.1c0-0.3-0.1-0.7-0.3-1c0-0.1-0.1-0.1-0.1-0.2c-0.1-0.1-0.3-0.2-0.4-0.3l-1.2-5.1c0-0.1,0-0.2,0-0.2
	c0-0.4,0.2-0.7,0.6-0.8c0.1,0,0.1,0,0.2,0c0.4,0,0.7,0.2,0.8,0.6l1.9,7.1l0.1,0.5c0,0,0,0.1,0,0.1c0.1,0.1,0.2,0.2,0.3,0.1
	c0,0,0,0,0,0c0.2,0,0.3-0.1,0.3-0.2l0-0.2l0.1-0.7l1.1-7c0.1-0.4,0.4-0.7,0.8-0.7c0,0,0.1,0,0.1,0c0.4,0.1,0.7,0.4,0.7,0.8
	c0,0,0,0.1,0,0.1l-1.3,9.6c0,0.1,0,0.1,0,0.2c0,0.1,0,0.2,0,0.2c0.1,0.6,0.6,1.1,1.2,1.2c0.1,0,0.1,0,0.2,0c0.6,0,1.1-0.4,1.3-0.9
	c0.2,0.2,0.5,0.3,0.8,0.4c0.1,0,0.1,0,0.2,0h0c0.4,0,0.8-0.2,1.1-0.5L21.8,21.8C21.8,21.8,21.8,21.8,21.8,21.8z M21.9,15.7l0,0.4
	l0,0.2l-0.1,1l-0.1,0.4c0,0.1,0,0.1,0,0.2c-0.1,0.3-0.4,0.6-0.8,0.6c0,0-0.1,0-0.1,0c-0.4,0-0.6-0.3-0.7-0.6c0,0,0,0,0,0
	c0,0,0,0,0,0c0,0,0-0.1,0-0.1c0,0,0-0.1,0-0.1l0.2-1.2l0.1-0.7c0-0.1,0-0.1,0-0.2c0,0,0-0.1,0-0.1c0,0,0,0,0,0
	c0.1-0.3,0.4-0.4,0.7-0.4h0c0,0,0.1,0,0.1,0h0c0.4,0.1,0.7,0.4,0.7,0.8C21.9,15.7,21.9,15.7,21.9,15.7z"/>
</svg>
